<svg version="1.2" xmlns="http://www.w3.org/2000/svg" viewBox="0 0 512 478" width="43" height="40">
	<style>
		.s0 { fill: #000000 } 
		.s1 { fill: #c5d3de } 
		.s2 { fill: #66e0f7 } 
	</style>
	<g id="레이어 1">
		<path id="Path 0" fill-rule="evenodd" class="s0" d="m256 300.04c186.73 0 195.68 0.09 199.5 1.82 2.2 1 5.37 3.35 7.05 5.23 1.68 1.87 4.03 6.33 5.22 9.91 1.19 3.57 11.47 35.3 22.86 70.5 11.38 35.2 20.89 65.8 21.15 68 0.25 2.2-0.13 5.8-0.86 8-0.72 2.2-2.68 5.52-4.36 7.38-1.69 1.85-4.41 4.1-6.06 5-2.7 1.46-12.74 1.65-100 1.91-53.35 0.17-98.46 0.05-100.25-0.25-1.79-0.3-4.39-1.78-5.78-3.29-1.8-1.95-2.53-3.85-2.5-6.5 0.02-2.77 0.8-4.54 5.88-9.75h97.07c91.98 0 97.05-0.09 96.59-1.75-0.27-0.96-10.17-31.79-22-68.5-11.83-36.71-21.51-66.98-21.51-67.25 0-0.27-86.4-0.5-192-0.5-105.6 0-192 0.23-192 0.5 0 0.27-9.61 30.31-21.36 66.75-11.75 36.44-21.65 67.26-22.64 70.75h194l3.09 2.75c2.5 2.23 3.08 3.51 3.04 6.75-0.03 2.2-0.74 5.01-1.59 6.25-0.85 1.24-3.23 2.72-5.29 3.3-2.54 0.72-35.15 0.96-101.25 0.75-88.64-0.27-97.77-0.45-100.5-1.96-1.65-0.91-4.19-2.94-5.64-4.5-1.45-1.56-3.36-4.3-4.25-6.09-0.88-1.79-1.62-4.94-1.63-7-0.01-2.18 8.81-31.21 21.04-69.25 11.57-36.02 22.02-68.43 23.21-72 1.19-3.58 3.54-8.04 5.22-9.91 1.68-1.88 4.85-4.23 7.05-5.23 3.82-1.73 12.77-1.82 199.5-1.82zm0.06 157.96c2.66 0 4.77 0.73 6.5 2.25 1.62 1.43 2.77 3.72 3.14 6.25 0.5 3.47 0.17 4.47-2.48 7.5-2.58 2.95-3.71 3.5-7.22 3.5-3.51 0-4.64-0.55-7.22-3.5-2.65-3.03-2.98-4.03-2.48-7.5 0.37-2.59 1.5-4.79 3.2-6.25 1.76-1.51 3.92-2.25 6.56-2.25z"/>
		<path id="Path 1" fill-rule="evenodd" class="s1" d="m256 320c105.6 0 192 0.23 192 0.5 0 0.27 9.68 30.54 21.51 67.25 11.83 36.71 21.73 67.54 22 68.5 0.46 1.66-4.61 1.75-193.66 1.75l-2.93 3c-1.6 1.65-2.92 3.9-2.92 5 0 1.9-0.67 2-26 2l-0.5-3c-0.28-1.71-1.68-3.88-3.25-5.03-1.53-1.14-4.3-2.04-6.25-2.04-1.95 0-4.72 0.9-6.25 2.04-1.57 1.15-2.97 3.32-3.75 8.03l-12.75-0.25c-12.4-0.24-12.76-0.31-13-2.5-0.14-1.24-1.6-3.37-6.25-7.25h-194l0.64-2.25c0.35-1.24 10.25-32.06 22-68.5 11.75-36.44 21.36-66.48 21.36-66.75 0-0.27 86.4-0.5 192-0.5zm-165.37 69c-4.72 14.57-8.6 26.84-8.61 27.25-0.01 0.41 4.35 0.64 9.68 0.5l9.7-0.25c12.8-39.52 16.76-52.01 17.06-53.25 0.53-2.21 0.38-2.25-8.91-2.25-5.2 0-9.65 0.34-9.89 0.75-0.24 0.41-4.3 12.68-9.03 27.25zm102.44 0.5c-1.7 14.3-3.08 26.34-3.08 26.75 0.01 0.41 4.51 0.75 10.01 0.75 9.56 0 10.02-0.1 10.47-2.25 0.26-1.24 1.64-12.15 3.06-24.25 1.42-12.1 2.89-23.7 3.28-25.77l0.69-3.77c-17.6 0.03-20.66 0.4-20.95 1.29-0.22 0.69-1.79 12.95-3.48 27.25zm102.26-24.79c0.31 2.09 1.72 13.69 3.14 25.79 1.42 12.1 2.8 23.01 3.06 24.25 0.45 2.15 0.91 2.25 10.47 2.25 8.88 0 9.99-0.2 9.94-1.75-0.03-0.96-1.5-13.45-3.28-27.75l-3.22-26-20.67-0.57zm107.01 26.28l8.26 25.5c15.04 0.39 19.39 0.17 19.38-0.25-0.01-0.41-3.96-12.9-8.79-27.75l-8.78-27c-19.34-0.57-19.38-0.56-18.85 1.72 0.29 1.25 4.24 13.76 8.78 27.78z"/>
		<path id="Path 2" fill-rule="evenodd" class="s0" d="m258 0.69c1.93 0.28 4.63 1.3 6 2.27 1.38 0.97 8.85 12.74 16.62 26.15 7.77 13.42 14.81 26.42 15.64 28.89 0.83 2.47 1.82 6.75 2.19 9.5 0.42 3.1 0.13 7.66-0.76 12-0.79 3.85-2.47 9.03-3.73 11.5-1.26 2.47-4.36 6.7-6.88 9.39-2.52 2.68-6.27 5.95-8.33 7.25-2.06 1.3-6.45 3.26-9.75 4.36-3.71 1.24-8.67 2-13 2-4.48 0-9.25-0.76-13.25-2.11-3.44-1.16-8.05-3.35-10.25-4.87-2.2-1.52-5.91-4.85-8.25-7.39-2.34-2.55-5.21-6.54-6.37-8.88-1.17-2.34-2.78-7.4-3.57-11.25-0.89-4.34-1.18-8.9-0.76-12 0.37-2.75 1.35-7.03 2.18-9.5 0.83-2.47 7.87-15.47 15.64-28.89 7.77-13.41 15.25-25.17 16.63-26.13 1.37-0.96 3.4-1.99 4.5-2.28 1.1-0.29 3.57-0.3 5.5-0.01zm-98.5 80.76c2.2 0.26 5.12 1.31 6.5 2.34 1.37 1.03 8.24 11.74 15.26 23.79 7.01 12.06 13.84 24.17 15.17 26.92 1.34 2.75 2.9 7.92 3.48 11.5q1.06 6.5 0.09 12.5c-0.53 3.3-2.5 9.15-4.37 13-2.29 4.69-5.19 8.62-8.77 11.9-2.95 2.7-7.83 6.03-10.86 7.41-3.03 1.38-8.43 2.98-12 3.55-4.72 0.76-8.28 0.73-13-0.12-3.57-0.65-9.2-2.5-12.5-4.11-3.86-1.89-7.91-5.02-11.34-8.78-2.94-3.22-6.38-8.1-7.64-10.85-1.27-2.75-2.85-7.7-3.52-11-0.73-3.63-0.92-8.17-0.49-11.5 0.4-3.03 1.37-7.3 2.15-9.5 0.79-2.2 7.1-13.9 14.04-26 6.93-12.1 13.65-23.51 14.92-25.35 1.27-1.85 3.79-3.99 5.6-4.77 1.87-0.8 4.99-1.2 7.28-0.93zm194.25-0.41c1.24-0.02 3.71 0.55 5.5 1.27 1.79 0.72 4.42 2.86 5.85 4.75 1.43 1.89 8.27 13.34 15.2 25.44 6.94 12.1 13.25 23.8 14.04 26 0.78 2.2 1.75 6.47 2.15 9.5 0.43 3.33 0.24 7.87-0.49 11.5-0.67 3.3-2.25 8.25-3.52 11-1.26 2.75-4.7 7.63-7.64 10.85-3.43 3.76-7.48 6.89-11.34 8.78-3.3 1.61-9.15 3.46-13 4.11-5.36 0.89-8.52 0.89-13.5-0.01-3.57-0.65-8.75-2.28-11.5-3.63-2.75-1.34-7.41-4.61-10.36-7.27-3.64-3.28-6.45-7.07-8.77-11.83-1.87-3.85-3.84-9.7-4.37-13-0.63-3.89-0.62-8.2 0.02-12.25 0.54-3.44 1.52-7.49 2.18-9 0.65-1.51 7.24-13.33 14.62-26.25 7.39-12.93 13.97-24.37 14.63-25.43 0.66-1.07 2.74-2.51 4.62-3.21 1.89-0.71 4.44-1.3 5.68-1.32zm-95.75 73.65c1.93 0.28 4.62 1.3 6 2.27 1.37 0.97 8.86 12.74 16.63 26.15 7.77 13.42 14.8 26.41 15.63 28.89 0.82 2.47 1.8 6.52 2.17 9 0.38 2.47 0.17 7.42-0.46 11-0.63 3.57-2.32 8.98-3.74 12-1.43 3.02-4.93 7.98-7.79 11-3.59 3.79-7.49 6.59-12.57 9-6.97 3.31-7.94 3.5-17.87 3.5-9.79 0-10.95-0.22-17.25-3.25-3.71-1.79-9.04-5.39-11.84-8-2.8-2.61-6.39-7-7.97-9.75-1.58-2.75-3.6-8.38-4.47-12.5-1.03-4.85-1.36-9.27-0.92-12.5 0.37-2.75 1.36-7.03 2.19-9.5 0.83-2.48 7.87-15.48 15.63-28.9 7.82-13.5 15.25-25.18 16.63-26.13 1.38-0.96 3.4-1.98 4.5-2.27 1.1-0.29 3.57-0.3 5.5-0.01zm-148.75 186.32c10.32-0.01 15.73 0.4 18 1.37 1.79 0.76 4.68 2.9 6.44 4.75 1.75 1.85 3.66 4.61 4.25 6.12 0.58 1.51 1.06 4.77 1.06 7.25 0 2.95-3.3 14.72-9.6 34.25-5.27 16.36-10.18 30.87-10.9 32.25-0.72 1.37-2.37 3.49-3.65 4.69-1.29 1.21-4.04 2.9-6.1 3.75-2.76 1.15-7.31 1.56-17.25 1.56-9.94 0-14.49-0.41-17.25-1.56-2.06-0.85-4.82-2.54-6.13-3.75-1.31-1.2-3.21-3.99-4.23-6.19-1.02-2.2-1.86-5.91-1.87-8.25-0.01-2.67 3.47-15.15 9.35-33.5 5.15-16.09 10.06-30.6 10.9-32.25 0.85-1.65 2.6-3.98 3.88-5.18 1.29-1.2 3.7-2.89 5.35-3.75 2.32-1.2 6.34-1.56 17.75-1.56zm-18.62 47.99c-4.72 14.57-8.6 26.84-8.61 27.25-0.01 0.41 4.35 0.64 9.68 0.5l9.7-0.25c12.8-39.52 16.76-52.01 17.06-53.25 0.53-2.21 0.38-2.25-8.91-2.25-5.2 0-9.65 0.34-9.89 0.75-0.24 0.41-4.3 12.67-9.03 27.25zm116.12-47.94c12.56-0.05 15.9 0.25 18.91 1.69 2.01 0.96 4.93 3.21 6.5 5 1.56 1.79 3.38 5.16 4.05 7.5 1.04 3.66 0.68 8.55-2.55 35.25-2.99 24.71-4.19 31.91-5.95 35.49-1.34 2.72-3.92 5.68-10.88 10.51h-33.66l-4.33-3.01c-2.56-1.78-5.26-4.85-6.6-7.5-1.24-2.47-2.25-6.18-2.25-8.24 0.01-2.06 1.59-16.69 3.53-32.5 1.93-15.81 3.95-30.1 4.48-31.75 0.53-1.65 2.66-4.66 4.73-6.7 2.07-2.03 4.89-4.14 6.27-4.68 1.37-0.55 9.36-1.02 17.75-1.06zm-13.68 48.44c-1.7 14.3-3.08 26.34-3.08 26.75 0.01 0.41 4.51 0.75 10.01 0.75 9.56 0 10.02-0.1 10.47-2.25 0.26-1.24 1.64-12.15 3.06-24.25 1.42-12.1 2.89-23.7 3.28-25.77l0.69-3.77c-17.6 0.03-20.66 0.4-20.95 1.29-0.22 0.69-1.79 12.95-3.48 27.25zm111.68-48.48c10.51-0.01 16.26 0.4 18.5 1.32 1.79 0.74 4.71 2.99 6.5 5 1.79 2.01 3.65 4.67 4.15 5.91 0.49 1.24 2.52 15.41 4.5 31.5 1.98 16.09 3.6 30.94 3.61 33 0 2.06-1.01 5.77-2.25 8.24-1.34 2.65-4.04 5.72-10.93 10.51h-33.66l-4.33-3.01c-2.63-1.82-5.21-4.78-6.55-7.5-1.76-3.58-2.96-10.78-5.95-35.49-3.23-26.7-3.59-31.59-2.55-35.25 0.67-2.34 2.49-5.71 4.06-7.5 1.56-1.79 4.38-4.03 6.25-4.98 2.77-1.41 6.21-1.73 18.65-1.75zm-9.42 23.69c0.31 2.09 1.72 13.69 3.14 25.79 1.42 12.1 2.8 23.01 3.06 24.25 0.45 2.15 0.91 2.25 10.47 2.25 8.88 0 9.99-0.2 9.94-1.75-0.03-0.96-1.5-13.45-3.28-27.75l-3.22-26-20.67-0.57zm106.92-23.68c8.14-0.02 15.98 0.44 17.5 1.03 1.51 0.58 4.03 2.27 5.59 3.75 1.56 1.47 3.53 4.03 4.38 5.68 0.85 1.65 5.76 16.17 10.91 32.25 5.88 18.35 9.36 30.84 9.35 33.5-0.01 2.34-0.85 6.05-1.87 8.25-1.01 2.2-2.92 4.99-4.23 6.2-1.31 1.2-4.07 2.89-6.13 3.75-2.76 1.14-7.31 1.55-17.25 1.55-9.94 0-14.49-0.41-17.25-1.55-2.06-0.86-4.8-2.55-6.09-3.75-1.29-1.21-2.94-3.32-3.66-4.7-0.72-1.37-5.63-15.88-10.9-32.25-6.3-19.52-9.6-31.29-9.6-34.25 0-2.47 0.48-5.73 1.06-7.25 0.59-1.51 2.28-4.31 3.77-6.22 1.5-1.91 4.28-4.03 6.19-4.71 2.15-0.76 9.13-1.25 18.23-1.28zm0.09 49.96l8.26 25.5c15.04 0.39 19.39 0.17 19.38-0.25-0.01-0.41-3.96-12.9-8.79-27.75l-8.78-27c-19.34-0.57-19.38-0.56-18.85 1.72 0.29 1.25 4.24 13.76 8.78 27.78z"/>
		<path id="Path 3" class="s2" d="m245.32 44.75c-6.18 10.79-10.6 19.71-11.28 22.75-0.88 4.02-0.8 6.03 0.43 10.25 1.08 3.7 2.86 6.58 6.03 9.75 2.95 2.95 5.96 4.88 8.75 5.61 2.34 0.61 6.73 0.84 9.75 0.51 3.42-0.37 6.92-1.54 9.25-3.11 2.06-1.38 4.85-4.2 6.2-6.26 1.35-2.06 2.9-5.78 3.45-8.25 0.67-3.02 0.66-5.98-0.03-9-0.56-2.47-5.41-12.49-10.77-22.25-5.36-9.76-10.17-17.75-10.68-17.75-0.51 0-5.51 7.99-11.1 17.75zm-98.16 81c-5.6 9.76-10.67 19.55-11.28 21.75-0.8 2.9-0.8 5.38-0.01 9 0.6 2.75 2.45 6.91 4.11 9.25 1.66 2.34 4.93 5.25 7.27 6.46 3.08 1.61 6.04 2.23 10.75 2.25 5.25 0.03 7.36-0.46 11-2.59 2.47-1.44 5.73-4.37 7.22-6.5 1.5-2.13 3.1-5.9 3.56-8.37 0.45-2.47 0.45-6.53 0-9-0.48-2.66-4.81-11.76-10.6-22.25-5.38-9.76-10.25-17.75-10.82-17.75-0.57 0-5.61 7.99-11.2 17.75zm196.11 0c-6.34 11.02-10.52 19.46-11.04 22.25-0.46 2.47-0.47 6.53-0.02 9 0.44 2.47 1.93 6.19 3.3 8.25 1.37 2.06 4.63 4.99 7.24 6.5 3.88 2.25 5.94 2.74 11.25 2.71 4.71-0.02 7.67-0.64 10.75-2.25 2.34-1.21 5.61-4.12 7.27-6.46 1.66-2.34 3.51-6.5 4.11-9.25 0.79-3.62 0.79-6.1-0.01-9-0.61-2.2-5.72-12-11.36-21.77-5.64-9.77-10.49-17.76-10.78-17.75-0.28 0.01-5.1 8.01-10.71 17.77zm-97.95 73c-6.18 10.79-10.6 19.71-11.28 22.75-0.88 4.02-0.8 6.03 0.43 10.25 1.08 3.7 2.86 6.58 6.03 9.75 2.95 2.95 5.96 4.88 8.75 5.61 2.34 0.61 6.73 0.84 9.75 0.51 3.42-0.37 6.92-1.54 9.25-3.11 2.06-1.38 4.85-4.2 6.2-6.26 1.35-2.06 2.9-5.78 3.45-8.25 0.67-3.02 0.66-5.98-0.03-9-0.56-2.47-5.41-12.49-10.77-22.25-5.36-9.76-10.17-17.75-10.68-17.75-0.51 0-5.51 7.99-11.1 17.75z"/>
	</g>
</svg>